<svg id="svg" version="1.1" xmlns="http://www.w3.org/2000/svg" xmlns:xlink="http://www.w3.org/1999/xlink" width="400" height="214.85714285714286" viewBox="0, 0, 400,214.85714285714286"><g id="svgg"><path id="path0" d="M0.000 107.469 L 0.000 214.938 200.000 214.938 L 400.000 214.938 400.000 107.469 L 400.000 0.000 200.000 0.000 L 0.000 0.000 0.000 107.469 M203.240 32.961 C 204.074 33.392,204.810 33.745,204.876 33.745 C 204.941 33.745,205.437 34.156,205.978 34.659 C 206.519 35.161,207.394 35.940,207.923 36.390 C 208.819 37.151,208.903 37.315,209.143 38.754 C 209.285 39.605,209.535 40.562,209.698 40.881 C 210.169 41.804,210.097 45.034,209.589 45.749 C 209.366 46.062,208.968 47.122,208.703 48.102 C 208.284 49.660,208.115 49.973,207.373 50.574 C 206.905 50.953,205.925 51.758,205.196 52.364 C 202.624 54.498,198.343 55.248,195.899 53.992 C 192.536 52.265,190.117 50.223,189.912 48.939 C 189.836 48.460,189.526 47.450,189.224 46.695 C 188.360 44.538,188.384 41.570,189.288 38.421 C 189.818 36.578,191.018 35.466,195.164 32.977 C 197.165 31.776,200.936 31.768,203.240 32.961 M174.515 92.825 C 175.174 93.518,176.059 94.461,176.484 94.920 C 176.908 95.379,178.008 96.287,178.928 96.937 C 179.848 97.587,180.974 98.603,181.431 99.194 C 182.248 100.251,183.041 100.879,185.599 102.494 C 186.410 103.005,187.047 103.602,187.314 104.100 C 187.549 104.536,187.921 104.950,188.142 105.020 C 188.362 105.090,189.056 105.597,189.682 106.147 C 190.309 106.697,191.181 107.389,191.620 107.684 C 192.059 107.980,193.235 108.995,194.234 109.940 C 195.232 110.885,196.219 111.756,196.426 111.875 C 196.633 111.993,197.145 112.356,197.562 112.682 C 198.765 113.618,200.315 113.833,200.860 113.140 C 202.219 111.411,203.666 110.043,204.377 109.815 C 205.080 109.590,206.501 108.376,209.995 105.016 C 210.527 104.505,211.204 104.012,211.499 103.921 C 212.103 103.736,214.320 101.941,217.835 98.791 C 219.138 97.623,220.702 96.387,221.310 96.043 C 221.977 95.665,222.513 95.181,222.663 94.819 C 222.799 94.491,223.466 93.623,224.144 92.893 C 226.185 90.693,227.086 90.999,228.702 94.439 C 229.192 95.482,229.924 96.474,231.194 97.815 C 233.343 100.082,233.328 99.964,231.671 101.449 C 230.944 102.100,229.614 103.318,228.715 104.155 C 227.817 104.993,226.695 105.906,226.222 106.186 C 225.358 106.697,223.919 107.829,222.389 109.201 C 221.936 109.608,221.017 110.432,220.347 111.032 C 219.677 111.632,218.743 112.352,218.270 112.630 C 217.219 113.250,215.622 114.745,215.458 115.262 C 215.392 115.471,215.078 115.776,214.760 115.940 C 214.442 116.105,213.503 116.805,212.673 117.496 C 211.843 118.188,210.898 118.892,210.572 119.062 C 209.848 119.440,209.135 120.545,209.135 121.289 C 209.135 122.133,210.338 123.224,214.421 126.083 C 214.944 126.449,216.230 127.536,217.278 128.499 C 218.326 129.461,219.623 130.563,220.161 130.949 C 220.699 131.334,221.705 132.092,222.398 132.633 C 223.090 133.173,224.263 133.940,225.006 134.335 C 225.748 134.731,226.537 135.256,226.759 135.502 C 228.179 137.072,228.692 137.685,228.693 137.809 C 228.694 137.886,229.133 138.207,229.670 138.521 C 231.093 139.356,232.111 140.313,232.925 141.584 C 233.320 142.202,233.860 142.822,234.124 142.963 C 234.389 143.103,234.947 143.492,235.364 143.827 C 235.781 144.161,236.812 144.847,237.655 145.352 C 239.959 146.730,241.438 148.742,240.883 149.741 C 240.392 150.625,237.357 153.202,236.616 153.365 C 235.571 153.595,235.044 153.988,232.778 156.230 C 231.655 157.341,230.382 158.475,229.948 158.751 C 229.515 159.026,229.097 159.354,229.020 159.479 C 228.943 159.603,228.476 159.907,227.981 160.154 C 227.487 160.401,226.647 161.013,226.115 161.513 C 224.531 163.004,220.849 166.002,219.924 166.554 C 219.451 166.836,218.644 167.450,218.132 167.918 C 217.620 168.386,216.933 168.961,216.604 169.195 C 216.275 169.429,215.865 169.894,215.692 170.228 C 215.482 170.634,215.035 170.967,214.352 171.225 C 213.115 171.694,211.030 173.263,210.616 174.036 C 210.268 174.687,208.405 176.116,207.202 176.654 C 206.400 177.013,205.918 177.423,203.466 179.826 C 202.150 181.116,199.450 182.576,198.775 182.361 C 198.188 182.175,196.108 180.575,195.164 179.582 C 194.750 179.147,194.025 178.593,193.552 178.352 C 192.696 177.915,191.823 177.219,189.575 175.184 C 187.487 173.292,186.477 172.503,184.823 171.472 C 183.933 170.917,183.098 170.231,182.969 169.947 C 182.840 169.663,181.782 168.799,180.620 168.027 C 179.159 167.058,178.382 166.390,178.105 165.864 C 177.870 165.420,177.423 164.990,177.030 164.832 C 176.660 164.682,175.653 163.883,174.794 163.056 C 173.206 161.528,172.363 160.922,170.704 160.118 C 169.108 159.344,167.101 157.815,166.454 156.882 C 165.785 155.916,164.352 154.771,161.956 153.285 C 161.128 152.772,160.363 152.192,160.255 151.996 C 160.147 151.800,159.487 151.104,158.788 150.451 C 157.329 149.086,157.263 148.467,158.487 147.622 C 158.858 147.367,159.709 146.666,160.378 146.067 C 161.047 145.467,162.287 144.492,163.134 143.901 C 165.314 142.380,166.792 141.175,166.792 140.919 C 166.792 140.118,168.955 138.077,170.731 137.202 C 171.106 137.017,171.703 136.474,172.058 135.995 C 172.413 135.516,173.186 134.805,173.778 134.415 C 174.369 134.025,175.509 133.243,176.311 132.678 C 177.113 132.112,178.207 131.347,178.741 130.976 C 179.276 130.606,180.141 129.857,180.665 129.311 C 181.188 128.765,181.759 128.318,181.935 128.318 C 182.111 128.318,182.475 128.018,182.745 127.652 C 183.014 127.285,183.617 126.790,184.085 126.550 C 184.553 126.311,185.471 125.607,186.127 124.987 C 186.782 124.367,187.637 123.697,188.027 123.499 C 190.485 122.248,189.786 119.213,186.674 117.629 C 186.083 117.328,184.825 116.380,183.880 115.523 C 182.934 114.665,181.646 113.578,181.017 113.106 C 179.879 112.252,178.353 110.960,176.481 109.266 C 175.940 108.777,175.013 108.090,174.422 107.739 C 173.831 107.389,172.590 106.391,171.664 105.521 C 170.738 104.651,169.723 103.782,169.407 103.589 C 168.598 103.094,166.147 100.425,166.147 100.039 C 166.147 99.268,167.235 97.651,168.268 96.886 C 169.066 96.295,169.412 95.868,169.575 95.274 C 169.832 94.339,171.588 92.042,172.252 91.773 C 173.071 91.442,173.308 91.552,174.515 92.825 M198.635 128.898 C 198.274 129.041,195.677 130.982,194.949 131.652 C 194.653 131.924,193.745 132.793,192.931 133.583 C 192.117 134.374,190.618 135.511,189.600 136.112 C 187.543 137.324,186.589 138.176,185.677 139.615 C 185.269 140.257,184.617 140.851,183.736 141.382 C 183.006 141.822,181.482 143.064,180.350 144.143 C 178.204 146.188,177.642 146.588,176.919 146.588 C 175.992 146.588,174.973 148.592,175.389 149.596 C 175.653 150.233,177.766 151.961,178.281 151.961 C 178.734 151.961,180.681 153.583,181.121 154.327 C 181.336 154.692,181.900 155.223,182.374 155.506 C 183.498 156.177,186.335 158.377,188.300 160.101 C 189.159 160.854,190.208 161.611,190.632 161.784 C 191.056 161.956,191.696 162.404,192.055 162.779 C 197.533 168.500,199.544 169.280,202.146 166.695 C 203.317 165.531,203.963 165.054,204.503 164.953 C 205.047 164.851,205.587 164.449,206.506 163.462 C 207.205 162.712,208.255 161.863,208.868 161.552 C 209.657 161.152,210.078 160.771,210.340 160.218 C 210.542 159.792,210.958 159.332,211.265 159.196 C 212.416 158.684,219.165 153.336,220.527 151.857 C 220.822 151.537,221.522 151.041,222.081 150.756 C 224.002 149.779,224.319 148.320,222.777 147.555 C 221.178 146.762,219.883 145.714,219.448 144.862 C 219.204 144.383,218.716 143.863,218.321 143.662 C 216.436 142.700,214.250 140.905,212.911 139.218 C 211.410 137.329,210.402 136.419,209.291 135.954 C 208.638 135.681,206.953 134.309,205.652 132.991 C 205.332 132.667,204.962 132.402,204.830 132.402 C 204.698 132.402,203.626 131.580,202.447 130.575 C 200.296 128.741,199.694 128.476,198.635 128.898 " stroke="none" fill="#b4ac94" fill-rule="evenodd"></path><path id="path1" d="M197.528 32.229 C 196.165 32.392,195.612 32.642,193.304 34.135 C 190.679 35.834,189.745 36.830,189.288 38.421 C 188.384 41.570,188.360 44.538,189.224 46.695 C 189.526 47.450,189.836 48.460,189.912 48.939 C 190.117 50.223,192.536 52.265,195.899 53.992 C 198.343 55.248,202.624 54.498,205.196 52.364 C 205.925 51.758,206.905 50.953,207.373 50.574 C 208.115 49.973,208.284 49.660,208.703 48.102 C 208.968 47.122,209.366 46.062,209.589 45.749 C 210.097 45.034,210.169 41.804,209.698 40.881 C 209.535 40.562,209.285 39.605,209.143 38.754 C 208.903 37.315,208.819 37.151,207.923 36.390 C 207.394 35.940,206.519 35.161,205.978 34.659 C 205.437 34.156,204.941 33.745,204.876 33.745 C 204.810 33.745,204.074 33.392,203.240 32.961 C 201.563 32.093,200.164 31.914,197.528 32.229 M172.252 91.773 C 171.588 92.042,169.832 94.339,169.575 95.274 C 169.412 95.868,169.066 96.295,168.268 96.886 C 167.235 97.651,166.147 99.268,166.147 100.039 C 166.147 100.425,168.598 103.094,169.407 103.589 C 169.723 103.782,170.738 104.651,171.664 105.521 C 172.590 106.391,173.831 107.389,174.422 107.739 C 175.013 108.090,175.940 108.777,176.481 109.266 C 178.353 110.960,179.879 112.252,181.017 113.106 C 181.646 113.578,182.934 114.665,183.880 115.523 C 184.825 116.380,186.083 117.328,186.674 117.629 C 189.786 119.213,190.485 122.248,188.027 123.499 C 187.637 123.697,186.782 124.367,186.127 124.987 C 185.471 125.607,184.553 126.311,184.085 126.550 C 183.617 126.790,183.014 127.285,182.745 127.652 C 182.475 128.018,182.111 128.318,181.935 128.318 C 181.759 128.318,181.188 128.765,180.665 129.311 C 180.141 129.857,179.276 130.606,178.741 130.976 C 178.207 131.347,177.113 132.112,176.311 132.678 C 175.509 133.243,174.369 134.025,173.778 134.415 C 173.186 134.805,172.413 135.516,172.058 135.995 C 171.703 136.474,171.106 137.017,170.731 137.202 C 168.955 138.077,166.792 140.118,166.792 140.919 C 166.792 141.175,165.314 142.380,163.134 143.901 C 162.287 144.492,161.047 145.467,160.378 146.067 C 159.709 146.666,158.858 147.367,158.487 147.622 C 157.263 148.467,157.329 149.086,158.788 150.451 C 159.487 151.104,160.147 151.800,160.255 151.996 C 160.363 152.192,161.128 152.772,161.956 153.285 C 164.352 154.771,165.785 155.916,166.454 156.882 C 167.101 157.815,169.108 159.344,170.704 160.118 C 172.363 160.922,173.206 161.528,174.794 163.056 C 175.653 163.883,176.660 164.682,177.030 164.832 C 177.423 164.990,177.870 165.420,178.105 165.864 C 178.382 166.390,179.159 167.058,180.620 168.027 C 181.782 168.799,182.840 169.663,182.969 169.947 C 183.098 170.231,183.933 170.917,184.823 171.472 C 186.477 172.503,187.487 173.292,189.575 175.184 C 191.823 177.219,192.696 177.915,193.552 178.352 C 194.025 178.593,194.750 179.147,195.164 179.582 C 196.108 180.575,198.188 182.175,198.775 182.361 C 199.450 182.576,202.150 181.116,203.466 179.826 C 205.918 177.423,206.400 177.013,207.202 176.654 C 208.405 176.116,210.268 174.687,210.616 174.036 C 211.030 173.263,213.115 171.694,214.352 171.225 C 215.035 170.967,215.482 170.634,215.692 170.228 C 215.865 169.894,216.275 169.429,216.604 169.195 C 216.933 168.961,217.620 168.386,218.132 167.918 C 218.644 167.450,219.451 166.836,219.924 166.554 C 220.849 166.002,224.531 163.004,226.115 161.513 C 226.647 161.013,227.487 160.401,227.981 160.154 C 228.476 159.907,228.943 159.603,229.020 159.479 C 229.097 159.354,229.515 159.026,229.948 158.751 C 230.382 158.475,231.655 157.341,232.778 156.230 C 235.044 153.988,235.571 153.595,236.616 153.365 C 237.357 153.202,240.392 150.625,240.883 149.741 C 241.438 148.742,239.959 146.730,237.655 145.352 C 236.812 144.847,235.781 144.161,235.364 143.827 C 234.947 143.492,234.389 143.103,234.124 142.963 C 233.860 142.822,233.320 142.202,232.925 141.584 C 232.111 140.313,231.093 139.356,229.670 138.521 C 229.133 138.207,228.694 137.886,228.693 137.809 C 228.692 137.685,228.179 137.072,226.759 135.502 C 226.537 135.256,225.748 134.731,225.006 134.335 C 224.263 133.940,223.090 133.173,222.398 132.633 C 221.705 132.092,220.699 131.334,220.161 130.949 C 219.623 130.563,218.326 129.461,217.278 128.499 C 216.230 127.536,214.944 126.449,214.421 126.083 C 210.338 123.224,209.135 122.133,209.135 121.289 C 209.135 120.545,209.848 119.440,210.572 119.062 C 210.898 118.892,211.843 118.188,212.673 117.496 C 213.503 116.805,214.442 116.105,214.760 115.940 C 215.078 115.776,215.392 115.471,215.458 115.262 C 215.622 114.745,217.219 113.250,218.270 112.630 C 218.743 112.352,219.677 111.632,220.347 111.032 C 221.017 110.432,221.936 109.608,222.389 109.201 C 223.919 107.829,225.358 106.697,226.222 106.186 C 226.695 105.906,227.817 104.993,228.715 104.155 C 229.614 103.318,230.944 102.100,231.671 101.449 C 233.328 99.964,233.343 100.082,231.194 97.815 C 229.924 96.474,229.192 95.482,228.702 94.439 C 227.086 90.999,226.185 90.693,224.144 92.893 C 223.466 93.623,222.799 94.491,222.663 94.819 C 222.513 95.181,221.977 95.665,221.310 96.043 C 220.702 96.387,219.138 97.623,217.835 98.791 C 214.320 101.941,212.103 103.736,211.499 103.921 C 211.204 104.012,210.527 104.505,209.995 105.016 C 206.501 108.376,205.080 109.590,204.377 109.815 C 203.666 110.043,202.219 111.411,200.860 113.140 C 200.315 113.833,198.765 113.618,197.562 112.682 C 197.145 112.356,196.633 111.993,196.426 111.875 C 196.219 111.756,195.232 110.885,194.234 109.940 C 193.235 108.995,192.059 107.980,191.620 107.684 C 191.181 107.389,190.309 106.697,189.682 106.147 C 189.056 105.597,188.362 105.090,188.142 105.020 C 187.921 104.950,187.549 104.536,187.314 104.100 C 187.047 103.602,186.410 103.005,185.599 102.494 C 183.041 100.879,182.248 100.251,181.431 99.194 C 180.974 98.603,179.848 97.587,178.928 96.937 C 178.008 96.287,176.908 95.379,176.484 94.920 C 173.230 91.403,173.208 91.387,172.252 91.773 M202.447 130.575 C 203.626 131.580,204.698 132.402,204.830 132.402 C 204.962 132.402,205.332 132.667,205.652 132.991 C 206.953 134.309,208.638 135.681,209.291 135.954 C 210.402 136.419,211.410 137.329,212.911 139.218 C 214.250 140.905,216.436 142.700,218.321 143.662 C 218.716 143.863,219.204 144.383,219.448 144.862 C 219.883 145.714,221.178 146.762,222.777 147.555 C 224.319 148.320,224.002 149.779,222.081 150.756 C 221.522 151.041,220.822 151.537,220.527 151.857 C 219.165 153.336,212.416 158.684,211.265 159.196 C 210.958 159.332,210.542 159.792,210.340 160.218 C 210.078 160.771,209.657 161.152,208.868 161.552 C 208.255 161.863,207.205 162.712,206.506 163.462 C 205.587 164.449,205.047 164.851,204.503 164.953 C 203.963 165.054,203.317 165.531,202.146 166.695 C 199.544 169.280,197.533 168.500,192.055 162.779 C 191.696 162.404,191.056 161.956,190.632 161.784 C 190.208 161.611,189.159 160.854,188.300 160.101 C 186.335 158.377,183.498 156.177,182.374 155.506 C 181.900 155.223,181.336 154.692,181.121 154.327 C 180.681 153.583,178.734 151.961,178.281 151.961 C 177.766 151.961,175.653 150.233,175.389 149.596 C 174.973 148.592,175.992 146.588,176.919 146.588 C 177.642 146.588,178.204 146.188,180.350 144.143 C 181.482 143.064,183.006 141.822,183.736 141.382 C 184.617 140.851,185.269 140.257,185.677 139.615 C 186.589 138.176,187.543 137.324,189.600 136.112 C 190.618 135.511,192.117 134.374,192.931 133.583 C 198.652 128.030,199.243 127.843,202.447 130.575 " stroke="none" fill="#d4ceb5" fill-rule="evenodd"></path></g></svg>