<svg id="svg" version="1.1" xmlns="http://www.w3.org/2000/svg" xmlns:xlink="http://www.w3.org/1999/xlink" width="400" height="478.3258594917788" viewBox="0, 0, 400,478.3258594917788"><g id="svgg"><path id="path0" d="M141.626 11.900 C 139.095 21.373,138.311 24.409,137.776 26.800 C 136.510 32.463,134.370 42.719,134.019 44.800 C 133.815 46.010,133.294 49.070,132.860 51.600 C 129.018 74.005,128.019 88.058,126.021 147.800 C 124.997 178.395,124.883 177.229,129.000 178.309 C 134.053 179.635,138.283 182.572,141.299 186.848 C 143.276 189.652,143.662 189.719,145.061 187.503 C 147.596 183.487,153.406 179.444,158.200 178.359 C 161.269 177.664,161.385 177.553,161.542 175.159 C 161.675 173.134,161.231 159.228,160.388 139.000 C 160.186 134.160,159.836 125.160,159.609 119.000 C 158.827 97.689,157.388 79.900,155.209 64.600 C 154.990 63.060,154.528 59.820,154.183 57.400 C 152.897 48.390,151.341 39.160,150.407 35.000 C 150.209 34.120,149.742 31.960,149.368 30.200 C 147.400 20.933,143.738 8.400,142.998 8.400 C 142.758 8.400,142.140 9.975,141.626 11.900 M255.444 9.233 C 254.439 12.362,253.754 14.832,252.182 21.000 C 251.173 24.960,250.200 28.920,250.021 29.800 C 249.841 30.680,249.325 33.110,248.875 35.200 C 246.386 46.756,244.013 61.671,242.417 75.800 C 241.101 87.458,240.110 108.467,238.400 161.000 C 237.883 176.894,237.877 176.561,238.700 177.570 C 239.107 178.069,240.405 178.689,241.800 179.052 C 246.947 180.387,251.679 183.742,254.451 188.019 C 256.065 190.509,256.458 190.496,258.126 187.889 C 261.019 183.366,265.208 180.748,273.200 178.468 C 274.509 178.095,274.618 175.760,274.022 160.800 C 273.781 154.750,273.320 143.230,272.998 135.200 C 272.677 127.170,272.227 115.920,271.998 110.200 C 271.600 100.232,270.838 89.647,269.997 82.400 C 269.780 80.530,269.237 75.850,268.791 72.000 C 267.861 63.981,266.254 52.487,265.408 47.800 C 261.404 25.631,256.399 6.260,255.444 9.233 M146.415 30.559 C 147.725 36.553,150.276 52.808,151.570 63.400 C 154.369 86.312,154.969 94.028,155.803 117.800 C 156.408 135.038,157.395 158.621,157.854 166.810 L 158.113 171.420 151.198 176.932 C 147.395 179.963,144.132 182.292,143.947 182.107 C 143.696 181.856,143.389 23.620,143.635 21.400 C 143.718 20.651,145.616 26.906,146.415 30.559 M256.951 22.700 C 259.982 33.077,261.966 44.641,265.204 70.800 C 266.762 83.391,267.895 98.367,268.396 113.000 C 268.986 130.248,269.948 153.660,270.393 161.600 C 270.608 165.450,270.788 169.413,270.792 170.408 L 270.800 172.215 264.195 177.508 C 257.317 183.019,256.651 183.388,256.252 181.900 C 255.843 180.372,255.962 22.000,256.373 22.000 C 256.578 22.000,256.838 22.315,256.951 22.700 M199.198 59.607 C 198.960 60.491,198.238 62.926,197.594 65.019 C 189.291 91.994,186.514 115.723,186.057 163.600 L 185.800 190.600 183.844 190.600 C 181.357 190.600,181.417 190.739,180.612 183.200 C 179.939 176.902,179.285 171.721,178.163 163.800 C 177.604 159.853,175.327 148.896,174.422 145.800 C 174.230 145.140,173.962 144.105,173.828 143.500 C 173.694 142.895,173.429 142.400,173.238 142.400 C 173.047 142.400,172.803 142.895,172.697 143.500 C 172.590 144.105,171.837 147.390,171.024 150.800 C 170.210 154.210,169.373 157.990,169.162 159.200 C 168.143 165.059,166.764 174.958,166.540 178.025 L 166.291 181.449 168.635 182.625 C 175.962 186.298,179.228 193.705,178.028 203.927 C 177.132 211.558,176.802 211.952,172.938 210.029 C 165.216 206.186,162.245 208.447,165.682 215.551 C 167.196 218.681,171.896 223.600,173.373 223.600 C 175.476 223.600,182.400 215.794,182.400 213.424 C 182.400 212.084,184.035 211.199,185.012 212.010 C 185.558 212.463,185.635 213.590,185.556 219.969 C 185.447 228.665,185.513 228.885,188.499 229.755 C 192.675 230.973,196.450 234.381,198.772 239.029 C 199.876 241.241,200.415 241.256,201.344 239.100 C 202.883 235.532,206.400 232.014,210.682 229.758 L 213.800 228.117 214.050 225.358 C 214.188 223.841,214.323 220.227,214.350 217.327 C 214.397 212.386,214.452 212.038,215.219 211.794 C 216.279 211.458,217.043 212.114,217.344 213.619 C 217.930 216.549,224.384 223.600,226.480 223.600 C 227.741 223.600,232.885 218.180,234.119 215.553 C 237.460 208.434,234.902 206.296,227.265 209.824 C 222.985 211.802,222.902 211.747,222.028 206.367 C 220.150 194.810,223.029 187.095,230.832 182.780 L 233.400 181.359 233.301 178.980 C 233.246 177.671,232.921 174.620,232.579 172.200 C 230.982 160.919,230.433 157.957,228.168 148.400 C 227.621 146.090,227.086 143.795,226.979 143.300 C 226.673 141.884,226.223 142.238,225.705 144.300 C 222.440 157.324,221.678 161.814,219.070 183.400 L 218.200 190.600 216.517 190.600 L 214.834 190.600 214.650 168.600 C 214.413 140.196,213.749 129.778,210.749 107.400 C 208.541 90.919,205.066 73.959,201.385 61.695 C 200.150 57.578,199.827 57.270,199.198 59.607 M201.576 74.001 C 204.104 83.368,207.626 106.226,209.374 124.600 C 210.868 140.312,211.169 149.368,211.438 186.800 L 211.707 224.200 209.753 225.591 C 208.679 226.356,206.220 228.501,204.288 230.359 C 202.191 232.376,200.634 233.588,200.422 233.368 C 199.486 232.396,199.464 70.022,200.400 70.600 C 200.571 70.705,201.100 72.236,201.576 74.001 M156.575 185.150 C 150.713 186.674,146.455 192.329,146.360 198.715 C 146.291 203.389,145.178 204.908,142.507 203.977 C 140.925 203.426,140.400 202.139,140.400 198.817 C 140.400 183.993,120.976 180.042,114.176 193.482 C 112.511 196.774,112.396 202.658,114.000 202.504 C 125.421 201.406,131.905 205.022,136.436 215.016 C 137.947 218.348,138.045 218.038,134.700 220.525 C 129.474 224.411,129.429 224.701,132.578 234.200 C 136.408 245.755,141.357 253.859,150.236 263.115 L 153.472 266.489 149.698 270.140 C 137.783 281.667,135.797 292.650,144.683 297.873 C 149.718 300.833,159.840 298.199,158.478 294.284 C 158.232 293.578,157.558 291.650,156.979 290.000 C 154.827 283.861,155.460 279.246,159.128 274.333 C 160.847 272.030,160.408 272.079,163.937 273.796 C 166.445 275.017,170.821 277.036,177.278 279.952 C 179.700 281.046,180.168 281.021,181.172 279.745 C 182.408 278.174,184.263 271.600,183.470 271.600 C 183.090 271.600,174.746 268.600,173.261 267.930 C 164.305 263.886,151.887 251.999,147.006 242.800 C 141.446 232.320,140.470 227.598,143.739 226.985 C 145.943 226.572,146.594 227.226,148.231 231.497 C 151.526 240.092,154.159 244.462,159.256 249.794 C 165.939 256.784,177.980 264.670,182.350 264.918 L 183.795 265.000 183.659 262.469 C 183.367 257.041,183.040 256.452,179.144 254.344 C 164.571 246.460,156.935 236.257,155.766 223.103 C 155.448 219.536,155.499 219.596,151.800 218.404 C 148.000 217.178,148.034 217.254,149.761 213.851 C 154.307 204.894,162.689 200.648,171.464 202.858 C 173.863 203.462,174.079 203.099,173.886 198.800 C 173.487 189.891,164.770 183.018,156.575 185.150 M235.800 185.495 C 229.488 187.770,225.861 192.776,225.821 199.265 C 225.796 203.423,225.776 203.397,228.520 202.783 C 237.446 200.785,245.452 204.949,249.975 213.942 C 251.581 217.135,251.536 217.228,247.817 218.395 C 244.405 219.465,244.000 219.906,244.000 222.549 C 244.000 234.280,235.061 246.537,221.005 254.078 C 216.514 256.487,216.576 256.386,216.138 261.956 L 215.873 265.313 217.420 265.023 C 220.077 264.524,223.886 262.547,229.879 258.554 C 241.100 251.079,246.895 243.749,251.618 231.060 C 253.096 227.091,253.852 226.413,256.087 227.053 C 258.134 227.640,258.352 228.915,257.073 232.800 C 251.644 249.277,236.925 264.553,221.400 269.821 C 215.322 271.883,215.320 271.887,217.093 276.800 C 218.714 281.290,219.261 281.454,224.510 279.028 C 230.227 276.386,233.385 274.914,236.039 273.653 C 239.327 272.091,238.806 271.946,241.018 275.046 C 244.656 280.144,244.901 286.013,241.749 292.575 C 240.419 295.344,240.516 295.838,242.661 297.198 C 248.809 301.097,256.073 299.364,259.232 293.244 C 262.575 286.770,258.841 278.050,248.938 269.200 C 246.009 266.583,245.998 266.539,247.850 264.778 C 256.478 256.577,263.201 246.017,266.933 234.800 C 270.301 224.679,270.256 224.424,264.300 220.009 C 263.035 219.071,262.000 218.224,262.000 218.126 C 262.000 217.529,263.986 213.425,265.274 211.360 C 269.490 204.601,275.624 201.574,283.400 202.417 C 287.162 202.824,287.638 202.115,286.766 197.401 C 283.573 180.127,260.699 181.510,259.194 199.068 C 258.838 203.221,258.735 203.445,256.939 203.960 C 254.685 204.607,253.615 203.514,253.606 200.555 C 253.574 189.754,244.731 182.275,235.800 185.495 M175.517 233.734 C 170.520 235.151,166.128 240.400,169.940 240.400 C 181.463 240.400,189.590 252.195,189.652 269.009 C 189.687 278.614,184.326 289.286,181.091 286.051 C 179.640 284.600,179.220 286.174,180.188 289.434 C 181.540 293.986,186.298 296.256,191.900 295.023 C 193.465 294.678,193.516 294.957,192.448 298.061 C 189.806 305.740,187.673 307.379,182.219 305.920 C 180.032 305.336,180.114 305.257,179.405 308.642 C 178.680 312.111,178.751 312.187,183.433 312.935 C 189.994 313.984,190.899 314.836,192.821 321.788 C 194.045 326.218,195.691 331.117,196.606 333.060 C 196.933 333.754,197.200 334.427,197.200 334.557 C 197.200 335.132,199.739 340.400,200.016 340.400 C 200.754 340.400,205.298 328.594,207.179 321.788 C 209.101 314.836,210.006 313.984,216.567 312.935 C 221.249 312.187,221.320 312.111,220.595 308.642 C 219.889 305.271,220.020 305.399,217.838 305.949 C 212.295 307.344,210.192 305.734,207.557 298.074 C 206.439 294.825,206.356 294.920,210.150 295.119 C 215.561 295.403,218.560 293.652,219.797 289.484 C 220.832 285.998,220.552 284.998,218.840 286.068 C 215.141 288.378,210.381 278.881,210.381 269.190 C 210.381 252.725,217.030 242.299,228.600 240.623 C 232.262 240.093,232.364 239.912,230.361 237.515 C 222.343 227.923,203.207 236.066,203.199 249.074 C 203.196 252.822,201.380 254.876,198.885 253.953 C 197.626 253.487,196.800 251.523,196.800 248.994 C 196.800 239.536,184.970 231.053,175.517 233.734 M97.000 239.787 C 96.780 239.856,95.563 240.125,94.295 240.385 C 88.664 241.544,86.325 249.927,89.268 258.400 C 95.782 277.150,95.401 288.094,87.920 297.172 L 85.800 299.743 85.909 304.457 C 86.034 309.890,86.110 309.766,81.774 311.155 C 80.468 311.573,75.620 313.120,71.000 314.593 C 66.380 316.065,61.340 317.689,59.800 318.201 C 56.669 319.241,38.667 325.030,32.800 326.883 C 30.710 327.543,27.414 328.623,25.476 329.284 C 21.608 330.602,20.645 330.536,23.050 329.118 C 36.221 321.354,83.289 293.049,84.113 292.397 C 88.938 288.584,89.291 277.033,84.974 264.177 C 83.479 259.723,82.670 256.591,82.480 254.524 C 82.160 251.028,81.653 250.521,80.682 252.723 C 78.172 258.411,78.245 261.918,81.047 270.400 C 82.562 274.987,82.877 281.782,81.589 282.119 C 80.414 282.426,75.638 281.431,73.280 280.388 C 71.753 279.713,71.376 279.672,70.837 280.127 C 69.819 280.985,41.421 306.537,41.200 306.794 C 41.090 306.921,39.200 308.633,37.000 310.598 C 34.800 312.562,32.190 314.916,31.200 315.828 C 30.210 316.740,24.540 321.858,18.600 327.200 C 5.537 338.950,6.198 338.331,6.450 338.584 C 6.564 338.697,7.634 338.447,8.828 338.028 C 10.023 337.609,13.610 336.451,16.800 335.455 C 19.990 334.458,28.900 331.640,36.600 329.192 C 44.300 326.744,52.266 324.219,54.303 323.580 C 56.339 322.941,59.669 321.892,61.703 321.249 C 63.736 320.606,67.110 319.541,69.200 318.883 C 71.290 318.224,74.755 317.126,76.900 316.443 C 79.045 315.759,82.465 314.677,84.500 314.037 C 90.357 312.197,90.400 312.173,90.400 310.866 C 90.400 305.464,91.198 304.828,96.758 305.793 C 108.467 307.824,116.891 313.879,121.948 323.897 C 123.571 327.112,123.571 328.417,121.947 329.784 C 119.587 331.769,113.890 334.000,111.180 334.000 C 110.232 334.000,110.062 334.307,108.820 338.255 C 108.085 340.595,106.182 346.490,104.593 351.355 C 103.004 356.220,100.495 363.980,99.019 368.600 C 97.542 373.220,95.918 378.260,95.409 379.800 C 94.900 381.340,92.830 387.730,90.808 394.000 C 84.224 414.421,82.361 420.174,81.809 421.800 C 79.390 428.930,78.383 432.877,79.319 431.567 C 79.385 431.475,81.500 429.061,84.019 426.203 C 86.539 423.344,89.140 420.382,89.800 419.620 C 90.460 418.859,91.736 417.417,92.635 416.418 C 93.534 415.418,100.268 407.760,107.598 399.400 C 114.928 391.040,122.112 382.871,123.563 381.246 C 125.013 379.621,127.010 377.354,128.000 376.208 C 130.601 373.196,138.136 364.635,138.393 364.400 C 138.513 364.290,140.354 362.203,142.484 359.763 L 146.358 355.326 145.355 352.842 C 143.449 348.125,143.023 342.569,144.464 341.227 C 147.209 338.669,160.607 337.129,167.498 338.579 C 175.189 340.196,187.211 348.194,187.196 351.683 C 187.187 353.854,183.410 358.554,178.870 362.044 L 177.541 363.067 179.376 371.833 C 180.386 376.655,181.471 381.770,181.788 383.200 C 182.104 384.630,182.815 388.050,183.367 390.800 C 183.919 393.550,184.934 398.500,185.623 401.800 C 187.786 412.166,189.162 418.800,190.435 425.000 C 191.112 428.300,192.174 433.430,192.793 436.400 C 193.413 439.370,194.477 444.500,195.158 447.800 C 195.840 451.100,196.948 456.410,197.621 459.600 C 198.294 462.790,199.051 466.705,199.302 468.300 C 199.882 471.978,200.118 471.944,200.687 468.100 C 200.939 466.395,201.702 462.390,202.381 459.200 C 203.646 453.259,204.993 446.783,207.166 436.200 C 207.843 432.900,208.941 427.590,209.606 424.400 C 210.272 421.210,211.373 415.900,212.055 412.600 C 212.736 409.300,213.816 404.080,214.455 401.000 C 215.094 397.920,215.878 394.140,216.196 392.600 C 216.515 391.060,217.598 385.840,218.604 381.000 C 219.610 376.160,220.701 370.850,221.028 369.200 C 221.356 367.550,221.807 365.520,222.030 364.690 C 222.416 363.256,222.369 363.124,221.118 362.097 C 212.767 355.239,211.302 352.015,214.900 348.410 C 224.632 338.656,238.060 335.574,252.491 339.783 C 256.972 341.090,257.704 346.586,254.313 353.467 L 253.491 355.135 254.445 356.315 C 254.970 356.964,257.290 359.633,259.600 362.245 C 268.624 372.450,282.064 387.708,287.398 393.803 C 290.478 397.321,293.089 400.290,293.201 400.400 C 293.314 400.510,296.009 403.570,299.192 407.200 C 302.374 410.830,305.076 413.890,305.197 414.000 C 305.317 414.110,308.631 417.890,312.562 422.400 C 321.204 432.317,320.729 431.804,321.009 431.524 C 321.134 431.399,320.529 429.160,319.664 426.548 C 317.764 420.809,312.114 403.340,310.366 397.800 C 309.672 395.600,308.421 391.730,307.586 389.200 C 306.178 384.937,304.512 379.779,294.731 349.400 C 292.748 343.240,290.806 337.312,290.417 336.226 L 289.708 334.251 287.154 333.738 C 278.258 331.949,275.483 329.010,277.965 324.007 C 283.024 313.811,291.268 307.870,303.242 305.793 C 308.587 304.865,309.069 305.128,309.420 309.155 L 309.689 312.233 311.344 312.739 C 314.091 313.580,325.447 317.171,331.200 319.018 C 334.170 319.972,337.590 321.056,338.800 321.427 C 340.010 321.798,342.530 322.604,344.400 323.220 C 346.270 323.835,350.500 325.171,353.800 326.189 C 357.100 327.207,360.520 328.287,361.400 328.590 C 362.280 328.892,365.700 329.982,369.000 331.011 C 376.896 333.473,391.992 338.292,393.155 338.722 C 394.344 339.162,393.214 337.940,388.600 333.795 C 384.711 330.302,378.568 324.741,376.234 322.600 C 375.331 321.772,366.815 314.082,363.573 311.167 C 357.962 306.122,334.328 284.816,332.384 283.050 C 328.129 279.185,328.624 279.463,327.256 280.171 C 323.750 281.984,317.784 282.653,317.517 281.262 C 317.164 279.430,318.092 272.794,319.175 269.416 C 321.608 261.819,321.670 258.990,319.526 253.388 C 318.368 250.361,317.773 250.566,317.461 254.100 C 317.166 257.429,316.715 259.161,314.429 265.740 C 311.514 274.129,311.387 279.364,313.955 285.308 C 315.066 287.882,315.286 287.911,321.116 286.249 C 328.669 284.097,328.384 284.115,330.234 285.666 C 332.066 287.202,347.036 300.463,352.983 305.817 C 358.975 311.214,377.132 327.262,378.451 328.329 C 380.741 330.180,379.514 329.988,375.500 327.866 C 371.854 325.939,363.733 321.655,353.000 315.999 C 351.020 314.955,347.600 313.157,345.400 312.003 C 343.200 310.849,339.780 309.048,337.800 308.001 C 335.820 306.954,332.850 305.384,331.200 304.512 C 316.296 296.638,316.290 296.634,313.231 293.747 C 307.317 288.166,304.998 281.786,306.393 274.931 C 308.061 266.726,308.627 264.450,310.097 260.022 C 312.295 253.400,312.310 247.396,310.138 243.104 C 307.895 238.670,296.040 238.359,289.663 242.566 C 283.787 246.442,283.078 247.727,285.788 249.592 C 288.070 251.162,289.220 252.688,291.093 256.629 L 292.600 259.800 292.587 266.600 C 292.566 277.515,290.298 283.836,283.040 293.200 C 268.439 312.038,267.036 314.829,267.016 325.074 C 267.001 333.289,267.005 333.294,276.200 335.761 C 288.841 339.153,287.629 338.193,290.565 347.127 C 291.771 350.797,297.634 368.358,303.594 386.152 C 309.554 403.945,314.372 418.561,314.301 418.632 C 314.197 418.736,306.382 406.374,295.800 389.365 C 292.086 383.396,272.943 352.859,268.990 346.600 C 263.814 338.403,262.893 336.494,262.178 332.486 C 260.206 321.426,263.243 309.573,270.348 300.600 C 281.574 286.424,283.714 282.991,286.191 275.188 C 288.519 267.855,287.672 260.909,283.835 255.870 C 281.678 253.038,275.785 253.433,271.255 256.714 C 268.148 258.965,268.048 259.224,268.129 264.827 C 268.206 270.239,267.814 271.866,265.520 275.644 C 264.193 277.829,264.168 278.182,265.159 280.696 C 270.153 293.367,261.362 305.392,247.600 304.714 C 243.479 304.511,241.219 303.598,238.472 301.028 C 236.037 298.751,235.990 298.753,230.400 301.265 C 224.870 303.752,225.174 303.353,226.097 306.906 C 228.020 314.309,226.388 316.957,218.884 318.610 C 213.537 319.789,213.186 320.191,211.981 326.535 C 210.680 333.385,207.126 342.134,204.262 345.538 C 202.105 348.102,202.051 348.012,210.800 356.460 C 217.731 363.152,218.800 364.345,218.800 365.393 C 218.800 366.611,218.346 368.953,215.001 385.000 C 213.992 389.840,212.103 398.930,210.802 405.200 C 209.502 411.470,207.612 420.560,206.603 425.400 C 205.594 430.240,204.510 435.460,204.194 437.000 C 203.879 438.540,203.074 442.410,202.405 445.600 C 201.736 448.790,201.010 452.286,200.791 453.369 C 200.419 455.216,200.023 456.195,199.982 455.367 C 199.972 455.165,199.980 431.411,199.999 402.579 L 200.034 350.158 197.348 347.391 C 192.847 342.756,188.580 332.604,187.409 323.745 C 187.037 320.934,185.794 319.799,182.183 318.972 C 173.633 317.016,171.899 314.452,173.885 306.702 C 174.695 303.539,174.591 303.351,171.400 302.217 C 170.300 301.827,168.458 300.988,167.306 300.353 C 164.478 298.796,163.862 298.881,161.355 301.172 C 155.536 306.489,144.266 305.972,138.750 300.135 C 133.073 294.126,131.790 287.532,134.891 280.288 L 135.709 278.375 133.755 274.488 L 131.800 270.600 131.800 265.056 L 131.800 259.511 129.921 257.809 C 124.503 252.903,117.977 252.567,115.346 257.057 C 109.141 267.645,112.466 279.227,126.834 297.076 C 137.114 309.847,140.864 324.141,137.399 337.353 C 136.701 340.019,136.509 339.274,140.482 349.323 C 142.924 355.497,143.280 354.387,136.338 362.230 C 133.402 365.547,128.395 371.217,125.212 374.830 C 119.420 381.404,114.878 386.546,100.355 402.969 C 96.090 407.792,91.295 413.251,89.700 415.100 C 85.897 419.509,86.036 418.866,90.661 410.655 C 92.785 406.885,97.486 398.490,101.108 392.000 C 104.730 385.510,108.146 379.390,108.699 378.400 C 109.252 377.410,110.605 374.980,111.706 373.000 C 112.807 371.020,115.276 366.610,117.193 363.200 C 119.110 359.790,121.176 356.100,121.784 355.000 C 122.391 353.900,124.839 349.490,127.223 345.200 C 132.353 335.969,132.844 334.266,132.931 325.400 C 133.026 315.711,130.589 310.550,119.061 296.035 C 110.812 285.648,108.113 279.782,107.243 270.352 C 106.337 260.539,108.989 252.864,114.500 249.347 C 116.430 248.116,116.391 247.751,114.100 245.522 C 109.490 241.040,101.547 238.376,97.000 239.787 " stroke="none" fill="#070707" fill-rule="evenodd"></path><path id="path1" d="M0.000 239.000 L 0.000 478.000 200.000 478.000 L 400.000 478.000 400.000 239.000 L 400.000 0.000 200.000 0.000 L 0.000 0.000 0.000 239.000 M144.584 12.100 C 146.592 18.573,148.152 24.475,149.368 30.200 C 149.742 31.960,150.209 34.120,150.407 35.000 C 151.341 39.160,152.897 48.390,154.183 57.400 C 154.528 59.820,154.990 63.060,155.209 64.600 C 157.388 79.900,158.827 97.689,159.609 119.000 C 159.836 125.160,160.186 134.160,160.388 139.000 C 161.231 159.228,161.675 173.134,161.542 175.159 C 161.385 177.553,161.269 177.664,158.200 178.359 C 153.406 179.444,147.596 183.487,145.061 187.503 C 143.662 189.719,143.276 189.652,141.299 186.848 C 138.283 182.572,134.053 179.635,129.000 178.309 C 124.883 177.229,124.997 178.395,126.021 147.800 C 128.019 88.058,129.018 74.005,132.860 51.600 C 133.294 49.070,133.815 46.010,134.019 44.800 C 134.370 42.719,136.510 32.463,137.776 26.800 C 138.096 25.370,138.883 22.220,139.524 19.800 C 143.116 6.253,142.881 6.610,144.584 12.100 M257.754 14.000 C 260.450 22.641,262.495 31.674,265.408 47.800 C 266.254 52.487,267.861 63.981,268.791 72.000 C 269.237 75.850,269.780 80.530,269.997 82.400 C 270.838 89.647,271.600 100.232,271.998 110.200 C 272.227 115.920,272.677 127.170,272.998 135.200 C 273.320 143.230,273.781 154.750,274.022 160.800 C 274.618 175.760,274.509 178.095,273.200 178.468 C 265.208 180.748,261.019 183.366,258.126 187.889 C 256.458 190.496,256.065 190.509,254.451 188.019 C 251.679 183.742,246.947 180.387,241.800 179.052 C 240.405 178.689,239.107 178.069,238.700 177.570 C 237.877 176.561,237.883 176.894,238.400 161.000 C 240.110 108.467,241.101 87.458,242.417 75.800 C 244.013 61.671,246.386 46.756,248.875 35.200 C 249.325 33.110,249.841 30.680,250.021 29.800 C 250.200 28.920,251.173 24.960,252.182 21.000 C 253.754 14.832,254.439 12.362,255.444 9.233 C 255.768 8.224,256.285 9.289,257.754 14.000 M143.635 21.400 C 143.389 23.620,143.696 181.856,143.947 182.107 C 144.132 182.292,147.395 179.963,151.198 176.932 L 158.113 171.420 157.854 166.810 C 157.395 158.621,156.408 135.038,155.803 117.800 C 154.776 88.529,153.053 70.609,148.590 42.800 C 146.799 31.637,143.891 19.081,143.635 21.400 M256.005 101.500 C 256.008 145.225,256.119 181.405,256.252 181.900 C 256.651 183.388,257.317 183.019,264.195 177.508 L 270.800 172.215 270.792 170.408 C 270.788 169.413,270.608 165.450,270.393 161.600 C 269.948 153.660,268.986 130.248,268.396 113.000 C 267.895 98.367,266.762 83.391,265.204 70.800 C 261.966 44.641,259.982 33.077,256.951 22.700 C 256.103 19.798,256.000 28.343,256.005 101.500 M201.385 61.695 C 205.066 73.959,208.541 90.919,210.749 107.400 C 213.749 129.778,214.413 140.196,214.650 168.600 L 214.834 190.600 216.517 190.600 L 218.200 190.600 219.070 183.400 C 221.678 161.814,222.440 157.324,225.705 144.300 C 226.223 142.238,226.673 141.884,226.979 143.300 C 227.086 143.795,227.621 146.090,228.168 148.400 C 230.433 157.957,230.982 160.919,232.579 172.200 C 232.921 174.620,233.246 177.671,233.301 178.980 L 233.400 181.359 230.832 182.780 C 223.029 187.095,220.150 194.810,222.028 206.367 C 222.902 211.747,222.985 211.802,227.265 209.824 C 234.902 206.296,237.460 208.434,234.119 215.553 C 232.885 218.180,227.741 223.600,226.480 223.600 C 224.384 223.600,217.930 216.549,217.344 213.619 C 217.043 212.114,216.279 211.458,215.219 211.794 C 214.452 212.038,214.397 212.386,214.350 217.327 C 214.323 220.227,214.188 223.841,214.050 225.358 L 213.800 228.117 210.682 229.758 C 206.400 232.014,202.883 235.532,201.344 239.100 C 200.415 241.256,199.876 241.241,198.772 239.029 C 196.450 234.381,192.675 230.973,188.499 229.755 C 185.513 228.885,185.447 228.665,185.556 219.969 C 185.635 213.590,185.558 212.463,185.012 212.010 C 184.035 211.199,182.400 212.084,182.400 213.424 C 182.400 215.794,175.476 223.600,173.373 223.600 C 171.896 223.600,167.196 218.681,165.682 215.551 C 162.245 208.447,165.216 206.186,172.938 210.029 C 176.802 211.952,177.132 211.558,178.028 203.927 C 179.228 193.705,175.962 186.298,168.635 182.625 L 166.291 181.449 166.540 178.025 C 166.764 174.958,168.143 165.059,169.162 159.200 C 169.373 157.990,170.210 154.210,171.024 150.800 C 171.837 147.390,172.590 144.105,172.697 143.500 C 172.803 142.895,173.047 142.400,173.238 142.400 C 173.429 142.400,173.694 142.895,173.828 143.500 C 173.962 144.105,174.230 145.140,174.422 145.800 C 175.327 148.896,177.604 159.853,178.163 163.800 C 179.285 171.721,179.939 176.902,180.612 183.200 C 181.417 190.739,181.357 190.600,183.844 190.600 L 185.800 190.600 186.057 163.600 C 186.514 115.723,189.291 91.994,197.594 65.019 C 198.238 62.926,198.960 60.491,199.198 59.607 C 199.827 57.270,200.150 57.578,201.385 61.695 M199.791 80.304 C 199.391 93.521,199.966 232.895,200.422 233.368 C 200.634 233.588,202.191 232.376,204.288 230.359 C 206.220 228.501,208.679 226.356,209.753 225.591 L 211.707 224.200 211.438 186.800 C 211.169 149.368,210.868 140.312,209.374 124.600 C 207.288 102.665,202.137 71.674,200.400 70.600 C 200.229 70.494,199.955 74.861,199.791 80.304 M165.611 186.205 C 170.679 188.773,173.639 193.278,173.886 198.800 C 174.079 203.099,173.863 203.462,171.464 202.858 C 162.689 200.648,154.307 204.894,149.761 213.851 C 148.034 217.254,148.000 217.178,151.800 218.404 C 155.499 219.596,155.448 219.536,155.766 223.103 C 156.935 236.257,164.571 246.460,179.144 254.344 C 183.040 256.452,183.367 257.041,183.659 262.469 L 183.795 265.000 182.350 264.918 C 177.980 264.670,165.939 256.784,159.256 249.794 C 154.159 244.462,151.526 240.092,148.231 231.497 C 146.594 227.226,145.943 226.572,143.739 226.985 C 140.470 227.598,141.446 232.320,147.006 242.800 C 151.887 251.999,164.305 263.886,173.261 267.930 C 174.746 268.600,183.090 271.600,183.470 271.600 C 184.263 271.600,182.408 278.174,181.172 279.745 C 180.168 281.021,179.700 281.046,177.278 279.952 C 170.821 277.036,166.445 275.017,163.937 273.796 C 160.408 272.079,160.847 272.030,159.128 274.333 C 155.460 279.246,154.827 283.861,156.979 290.000 C 157.558 291.650,158.232 293.578,158.478 294.284 C 159.840 298.199,149.718 300.833,144.683 297.873 C 135.797 292.650,137.783 281.667,149.698 270.140 L 153.472 266.489 150.236 263.115 C 141.357 253.859,136.408 245.755,132.578 234.200 C 129.429 224.701,129.474 224.411,134.700 220.525 C 138.045 218.038,137.947 218.348,136.436 215.016 C 131.905 205.022,125.421 201.406,114.000 202.504 C 112.396 202.658,112.511 196.774,114.176 193.482 C 120.976 180.042,140.400 183.993,140.400 198.817 C 140.400 202.139,140.925 203.426,142.507 203.977 C 145.178 204.908,146.291 203.389,146.360 198.715 C 146.512 188.464,156.833 181.758,165.611 186.205 M245.493 186.069 C 250.577 188.552,253.586 193.925,253.606 200.555 C 253.615 203.514,254.685 204.607,256.939 203.960 C 258.735 203.445,258.838 203.221,259.194 199.068 C 260.699 181.510,283.573 180.127,286.766 197.401 C 287.638 202.115,287.162 202.824,283.400 202.417 C 275.624 201.574,269.490 204.601,265.274 211.360 C 263.986 213.425,262.000 217.529,262.000 218.126 C 262.000 218.224,263.035 219.071,264.300 220.009 C 270.256 224.424,270.301 224.679,266.933 234.800 C 263.201 246.017,256.478 256.577,247.850 264.778 C 245.998 266.539,246.009 266.583,248.938 269.200 C 258.841 278.050,262.575 286.770,259.232 293.244 C 256.073 299.364,248.809 301.097,242.661 297.198 C 240.516 295.838,240.419 295.344,241.749 292.575 C 244.901 286.013,244.656 280.144,241.018 275.046 C 238.806 271.946,239.327 272.091,236.039 273.653 C 218.045 282.199,218.986 282.043,217.093 276.800 C 215.320 271.887,215.322 271.883,221.400 269.821 C 236.925 264.553,251.644 249.277,257.073 232.800 C 258.352 228.915,258.134 227.640,256.087 227.053 C 253.852 226.413,253.096 227.091,251.618 231.060 C 246.895 243.749,241.100 251.079,229.879 258.554 C 223.886 262.547,220.077 264.524,217.420 265.023 L 215.873 265.313 216.138 261.956 C 216.576 256.386,216.514 256.487,221.005 254.078 C 235.061 246.537,244.000 234.280,244.000 222.549 C 244.000 219.906,244.405 219.465,247.817 218.395 C 251.536 217.228,251.581 217.135,249.975 213.942 C 245.452 204.949,237.446 200.785,228.520 202.783 C 225.776 203.397,225.796 203.423,225.821 199.265 C 225.884 188.930,236.615 181.732,245.493 186.069 M186.771 234.785 C 192.166 237.509,196.800 244.073,196.800 248.994 C 196.800 251.523,197.626 253.487,198.885 253.953 C 201.380 254.876,203.196 252.822,203.199 249.074 C 203.207 236.066,222.343 227.923,230.361 237.515 C 232.364 239.912,232.262 240.093,228.600 240.623 C 217.030 242.299,210.381 252.725,210.381 269.190 C 210.381 278.881,215.141 288.378,218.840 286.068 C 220.552 284.998,220.832 285.998,219.797 289.484 C 218.560 293.652,215.561 295.403,210.150 295.119 C 206.356 294.920,206.439 294.825,207.557 298.074 C 210.192 305.734,212.295 307.344,217.838 305.949 C 220.020 305.399,219.889 305.271,220.595 308.642 C 221.320 312.111,221.249 312.187,216.567 312.935 C 210.006 313.984,209.101 314.836,207.179 321.788 C 205.298 328.594,200.754 340.400,200.016 340.400 C 199.739 340.400,197.200 335.132,197.200 334.557 C 197.200 334.427,196.933 333.754,196.606 333.060 C 195.691 331.117,194.045 326.218,192.821 321.788 C 190.899 314.836,189.994 313.984,183.433 312.935 C 178.751 312.187,178.680 312.111,179.405 308.642 C 180.114 305.257,180.032 305.336,182.219 305.920 C 187.673 307.379,189.806 305.740,192.448 298.061 C 193.516 294.957,193.465 294.678,191.900 295.023 C 186.298 296.256,181.540 293.986,180.188 289.434 C 179.220 286.174,179.640 284.600,181.091 286.051 C 184.326 289.286,189.687 278.614,189.652 269.009 C 189.590 252.195,181.463 240.400,169.940 240.400 C 167.910 240.400,167.728 239.859,169.151 238.062 C 173.008 233.192,180.759 231.751,186.771 234.785 M105.658 240.386 C 108.742 241.339,111.562 243.055,114.100 245.522 C 116.391 247.751,116.430 248.116,114.500 249.347 C 108.989 252.864,106.337 260.539,107.243 270.352 C 108.113 279.782,110.812 285.648,119.061 296.035 C 130.589 310.550,133.026 315.711,132.931 325.400 C 132.844 334.266,132.353 335.969,127.223 345.200 C 124.839 349.490,122.391 353.900,121.784 355.000 C 121.176 356.100,119.110 359.790,117.193 363.200 C 115.276 366.610,112.807 371.020,111.706 373.000 C 110.605 374.980,109.252 377.410,108.699 378.400 C 108.146 379.390,104.730 385.510,101.108 392.000 C 97.486 398.490,92.785 406.885,90.661 410.655 C 86.036 418.866,85.897 419.509,89.700 415.100 C 91.295 413.251,96.090 407.792,100.355 402.969 C 114.878 386.546,119.420 381.404,125.212 374.830 C 128.395 371.217,133.402 365.547,136.338 362.230 C 143.280 354.387,142.924 355.497,140.482 349.323 C 136.509 339.274,136.701 340.019,137.399 337.353 C 140.864 324.141,137.114 309.847,126.834 297.076 C 112.466 279.227,109.141 267.645,115.346 257.057 C 117.977 252.567,124.503 252.903,129.921 257.809 L 131.800 259.511 131.800 265.056 L 131.800 270.600 133.755 274.488 L 135.709 278.375 134.891 280.288 C 131.790 287.532,133.073 294.126,138.750 300.135 C 144.266 305.972,155.536 306.489,161.355 301.172 C 163.862 298.881,164.478 298.796,167.306 300.353 C 168.458 300.988,170.300 301.827,171.400 302.217 C 174.591 303.351,174.695 303.539,173.885 306.702 C 171.899 314.452,173.633 317.016,182.183 318.972 C 185.794 319.799,187.037 320.934,187.409 323.745 C 188.580 332.604,192.847 342.756,197.348 347.391 L 200.034 350.158 199.999 402.579 C 199.980 431.411,199.972 455.165,199.982 455.367 C 200.023 456.195,200.419 455.216,200.791 453.369 C 201.010 452.286,201.736 448.790,202.405 445.600 C 203.074 442.410,203.879 438.540,204.194 437.000 C 204.510 435.460,205.594 430.240,206.603 425.400 C 207.612 420.560,209.502 411.470,210.802 405.200 C 212.103 398.930,213.992 389.840,215.001 385.000 C 218.346 368.953,218.800 366.611,218.800 365.393 C 218.800 364.345,217.731 363.152,210.800 356.460 C 202.051 348.012,202.105 348.102,204.262 345.538 C 207.126 342.134,210.680 333.385,211.981 326.535 C 213.186 320.191,213.537 319.789,218.884 318.610 C 226.388 316.957,228.020 314.309,226.097 306.906 C 225.174 303.353,224.870 303.752,230.400 301.265 C 235.990 298.753,236.037 298.751,238.472 301.028 C 241.219 303.598,243.479 304.511,247.600 304.714 C 261.362 305.392,270.153 293.367,265.159 280.696 C 264.168 278.182,264.193 277.829,265.520 275.644 C 267.814 271.866,268.206 270.239,268.129 264.827 C 268.048 259.224,268.148 258.965,271.255 256.714 C 275.785 253.433,281.678 253.038,283.835 255.870 C 287.672 260.909,288.519 267.855,286.191 275.188 C 283.714 282.991,281.574 286.424,270.348 300.600 C 263.243 309.573,260.206 321.426,262.178 332.486 C 262.893 336.494,263.814 338.403,268.990 346.600 C 272.943 352.859,292.086 383.396,295.800 389.365 C 306.382 406.374,314.197 418.736,314.301 418.632 C 314.372 418.561,309.554 403.945,303.594 386.152 C 297.634 368.358,291.771 350.797,290.565 347.127 C 287.629 338.193,288.841 339.153,276.200 335.761 C 267.005 333.294,267.001 333.289,267.016 325.074 C 267.036 314.829,268.439 312.038,283.040 293.200 C 290.298 283.836,292.566 277.515,292.587 266.600 L 292.600 259.800 291.093 256.629 C 289.220 252.688,288.070 251.162,285.788 249.592 C 283.078 247.727,283.787 246.442,289.663 242.566 C 296.040 238.359,307.895 238.670,310.138 243.104 C 312.310 247.396,312.295 253.400,310.097 260.022 C 308.627 264.450,308.061 266.726,306.393 274.931 C 304.998 281.786,307.317 288.166,313.231 293.747 C 316.290 296.634,316.296 296.638,331.200 304.512 C 332.850 305.384,335.820 306.954,337.800 308.001 C 339.780 309.048,343.200 310.849,345.400 312.003 C 347.600 313.157,351.020 314.955,353.000 315.999 C 363.733 321.655,371.854 325.939,375.500 327.866 C 379.514 329.988,380.741 330.180,378.451 328.329 C 377.132 327.262,358.975 311.214,352.983 305.817 C 347.036 300.463,332.066 287.202,330.234 285.666 C 328.384 284.115,328.669 284.097,321.116 286.249 C 315.286 287.911,315.066 287.882,313.955 285.308 C 311.387 279.364,311.514 274.129,314.429 265.740 C 316.715 259.161,317.166 257.429,317.461 254.100 C 317.773 250.566,318.368 250.361,319.526 253.388 C 321.670 258.990,321.608 261.819,319.175 269.416 C 318.092 272.794,317.164 279.430,317.517 281.262 C 317.784 282.653,323.750 281.984,327.256 280.171 C 328.624 279.463,328.129 279.185,332.384 283.050 C 334.328 284.816,357.962 306.122,363.573 311.167 C 366.815 314.082,375.331 321.772,376.234 322.600 C 378.568 324.741,384.711 330.302,388.600 333.795 C 393.214 337.940,394.344 339.162,393.155 338.722 C 391.992 338.292,376.896 333.473,369.000 331.011 C 365.700 329.982,362.280 328.892,361.400 328.590 C 360.520 328.287,357.100 327.207,353.800 326.189 C 350.500 325.171,346.270 323.835,344.400 323.220 C 342.530 322.604,340.010 321.798,338.800 321.427 C 337.590 321.056,334.170 319.972,331.200 319.018 C 325.447 317.171,314.091 313.580,311.344 312.739 L 309.689 312.233 309.420 309.155 C 309.069 305.128,308.587 304.865,303.242 305.793 C 291.268 307.870,283.024 313.811,277.965 324.007 C 275.483 329.010,278.258 331.949,287.154 333.738 L 289.708 334.251 290.417 336.226 C 290.806 337.312,292.748 343.240,294.731 349.400 C 304.512 379.779,306.178 384.937,307.586 389.200 C 308.421 391.730,309.672 395.600,310.366 397.800 C 312.114 403.340,317.764 420.809,319.664 426.548 C 320.529 429.160,321.134 431.399,321.009 431.524 C 320.729 431.804,321.204 432.317,312.562 422.400 C 308.631 417.890,305.317 414.110,305.197 414.000 C 305.076 413.890,302.374 410.830,299.192 407.200 C 296.009 403.570,293.314 400.510,293.201 400.400 C 293.089 400.290,290.478 397.321,287.398 393.803 C 282.064 387.708,268.624 372.450,259.600 362.245 C 257.290 359.633,254.970 356.964,254.445 356.315 L 253.491 355.135 254.313 353.467 C 257.704 346.586,256.972 341.090,252.491 339.783 C 238.060 335.574,224.632 338.656,214.900 348.410 C 211.302 352.015,212.767 355.239,221.118 362.097 C 222.369 363.124,222.416 363.256,222.030 364.690 C 221.807 365.520,221.356 367.550,221.028 369.200 C 220.701 370.850,219.610 376.160,218.604 381.000 C 217.598 385.840,216.515 391.060,216.196 392.600 C 215.878 394.140,215.094 397.920,214.455 401.000 C 213.816 404.080,212.736 409.300,212.055 412.600 C 211.373 415.900,210.272 421.210,209.606 424.400 C 208.941 427.590,207.843 432.900,207.166 436.200 C 204.993 446.783,203.646 453.259,202.381 459.200 C 201.702 462.390,200.939 466.395,200.687 468.100 C 200.118 471.944,199.882 471.978,199.302 468.300 C 199.051 466.705,198.294 462.790,197.621 459.600 C 196.948 456.410,195.840 451.100,195.158 447.800 C 194.477 444.500,193.413 439.370,192.793 436.400 C 192.174 433.430,191.112 428.300,190.435 425.000 C 189.162 418.800,187.786 412.166,185.623 401.800 C 184.934 398.500,183.919 393.550,183.367 390.800 C 182.815 388.050,182.104 384.630,181.788 383.200 C 181.471 381.770,180.386 376.655,179.376 371.833 L 177.541 363.067 178.870 362.044 C 183.410 358.554,187.187 353.854,187.196 351.683 C 187.211 348.194,175.189 340.196,167.498 338.579 C 160.607 337.129,147.209 338.669,144.464 341.227 C 143.023 342.569,143.449 348.125,145.355 352.842 L 146.358 355.326 142.484 359.763 C 140.354 362.203,138.513 364.290,138.393 364.400 C 138.136 364.635,130.601 373.196,128.000 376.208 C 127.010 377.354,125.013 379.621,123.563 381.246 C 122.112 382.871,114.928 391.040,107.598 399.400 C 100.268 407.760,93.534 415.418,92.635 416.418 C 91.736 417.417,90.460 418.859,89.800 419.620 C 89.140 420.382,86.539 423.344,84.019 426.203 C 81.500 429.061,79.385 431.475,79.319 431.567 C 78.383 432.877,79.390 428.930,81.809 421.800 C 82.361 420.174,84.224 414.421,90.808 394.000 C 92.830 387.730,94.900 381.340,95.409 379.800 C 95.918 378.260,97.542 373.220,99.019 368.600 C 100.495 363.980,103.004 356.220,104.593 351.355 C 106.182 346.490,108.085 340.595,108.820 338.255 C 110.062 334.307,110.232 334.000,111.180 334.000 C 113.890 334.000,119.587 331.769,121.947 329.784 C 123.571 328.417,123.571 327.112,121.948 323.897 C 116.891 313.879,108.467 307.824,96.758 305.793 C 91.198 304.828,90.400 305.464,90.400 310.866 C 90.400 312.173,90.357 312.197,84.500 314.037 C 82.465 314.677,79.045 315.759,76.900 316.443 C 74.755 317.126,71.290 318.224,69.200 318.883 C 67.110 319.541,63.736 320.606,61.703 321.249 C 59.669 321.892,56.339 322.941,54.303 323.580 C 52.266 324.219,44.300 326.744,36.600 329.192 C 28.900 331.640,19.990 334.458,16.800 335.455 C 13.610 336.451,10.023 337.609,8.828 338.028 C 7.634 338.447,6.564 338.697,6.450 338.584 C 6.198 338.331,5.537 338.950,18.600 327.200 C 24.540 321.858,30.210 316.740,31.200 315.828 C 32.190 314.916,34.800 312.562,37.000 310.598 C 39.200 308.633,41.090 306.921,41.200 306.794 C 41.421 306.537,69.819 280.985,70.837 280.127 C 71.376 279.672,71.753 279.713,73.280 280.388 C 75.638 281.431,80.414 282.426,81.589 282.119 C 82.877 281.782,82.562 274.987,81.047 270.400 C 78.245 261.918,78.172 258.411,80.682 252.723 C 81.653 250.521,82.160 251.028,82.480 254.524 C 82.670 256.591,83.479 259.723,84.974 264.177 C 89.291 277.033,88.938 288.584,84.113 292.397 C 83.289 293.049,36.221 321.354,23.050 329.118 C 20.645 330.536,21.608 330.602,25.476 329.284 C 27.414 328.623,30.710 327.543,32.800 326.883 C 38.667 325.030,56.669 319.241,59.800 318.201 C 61.340 317.689,66.380 316.065,71.000 314.593 C 75.620 313.120,80.468 311.573,81.774 311.155 C 86.110 309.766,86.034 309.890,85.909 304.457 L 85.800 299.743 87.920 297.172 C 95.401 288.094,95.782 277.150,89.268 258.400 C 86.325 249.927,88.664 241.544,94.295 240.385 C 95.563 240.125,96.780 239.856,97.000 239.787 C 98.408 239.350,103.431 239.697,105.658 240.386 " stroke="none" fill="#fbfbfb" fill-rule="evenodd"></path></g></svg>